<mxfile host="app.diagrams.net" modified="2021-05-08T14:50:54.078Z" agent="5.0 (Windows NT 10.0; Win64; x64) AppleWebKit/537.36 (KHTML, like Gecko) Chrome/89.0.4389.128 Safari/537.36 OPR/75.0.3969.243 (Edition Yx 02)" etag="FLr8OJ9z1fVPDkv7AMaR" version="14.5.10" type="github">
  <diagram id="ykmPy_L6LVS7x-s9Da8c" name="Page-1">
    <mxGraphModel dx="1062" dy="584" grid="1" gridSize="10" guides="1" tooltips="1" connect="1" arrows="1" fold="1" page="1" pageScale="1" pageWidth="1100" pageHeight="850" math="0" shadow="0">
      <root>
        <mxCell id="0" />
        <mxCell id="1" parent="0" />
        <mxCell id="B5Rrf7--88O0T3kkd0GH-7" style="edgeStyle=orthogonalEdgeStyle;rounded=0;orthogonalLoop=1;jettySize=auto;html=1;exitX=0.5;exitY=0.5;exitDx=0;exitDy=0;exitPerimeter=0;entryX=0;entryY=0.5;entryDx=0;entryDy=0;entryPerimeter=0;" edge="1" parent="1" source="B5Rrf7--88O0T3kkd0GH-1" target="B5Rrf7--88O0T3kkd0GH-2">
          <mxGeometry relative="1" as="geometry" />
        </mxCell>
        <mxCell id="B5Rrf7--88O0T3kkd0GH-43" style="edgeStyle=orthogonalEdgeStyle;rounded=0;orthogonalLoop=1;jettySize=auto;html=1;exitX=0;exitY=1;exitDx=0;exitDy=0;exitPerimeter=0;" edge="1" parent="1" source="B5Rrf7--88O0T3kkd0GH-1" target="B5Rrf7--88O0T3kkd0GH-41">
          <mxGeometry relative="1" as="geometry">
            <mxPoint x="190" y="470" as="targetPoint" />
          </mxGeometry>
        </mxCell>
        <mxCell id="B5Rrf7--88O0T3kkd0GH-1" value="user" style="shape=umlActor;verticalLabelPosition=bottom;verticalAlign=top;html=1;outlineConnect=0;" vertex="1" parent="1">
          <mxGeometry x="190" y="60" width="30" height="60" as="geometry" />
        </mxCell>
        <mxCell id="B5Rrf7--88O0T3kkd0GH-2" value="Sign up" style="shape=umlBoundary;whiteSpace=wrap;html=1;" vertex="1" parent="1">
          <mxGeometry x="300" y="50" width="100" height="80" as="geometry" />
        </mxCell>
        <mxCell id="B5Rrf7--88O0T3kkd0GH-3" value="Profiles" style="ellipse;shape=umlEntity;whiteSpace=wrap;html=1;" vertex="1" parent="1">
          <mxGeometry x="730" y="220" width="80" height="80" as="geometry" />
        </mxCell>
        <mxCell id="B5Rrf7--88O0T3kkd0GH-4" value="Client&lt;br&gt;Pasword check" style="ellipse;shape=umlControl;whiteSpace=wrap;html=1;" vertex="1" parent="1">
          <mxGeometry x="490" y="60" width="70" height="80" as="geometry" />
        </mxCell>
        <mxCell id="B5Rrf7--88O0T3kkd0GH-15" value="" style="edgeStyle=orthogonalEdgeStyle;rounded=0;orthogonalLoop=1;jettySize=auto;html=1;" edge="1" parent="1" source="B5Rrf7--88O0T3kkd0GH-5" target="B5Rrf7--88O0T3kkd0GH-3">
          <mxGeometry relative="1" as="geometry" />
        </mxCell>
        <mxCell id="B5Rrf7--88O0T3kkd0GH-19" value="" style="edgeStyle=orthogonalEdgeStyle;rounded=0;orthogonalLoop=1;jettySize=auto;html=1;" edge="1" parent="1" source="B5Rrf7--88O0T3kkd0GH-5" target="B5Rrf7--88O0T3kkd0GH-18">
          <mxGeometry relative="1" as="geometry" />
        </mxCell>
        <mxCell id="B5Rrf7--88O0T3kkd0GH-5" value="BD control" style="ellipse;shape=umlControl;whiteSpace=wrap;html=1;" vertex="1" parent="1">
          <mxGeometry x="530" y="220" width="70" height="80" as="geometry" />
        </mxCell>
        <mxCell id="B5Rrf7--88O0T3kkd0GH-6" value="Login" style="shape=umlBoundary;whiteSpace=wrap;html=1;" vertex="1" parent="1">
          <mxGeometry x="220" y="180" width="100" height="80" as="geometry" />
        </mxCell>
        <mxCell id="B5Rrf7--88O0T3kkd0GH-9" value="" style="endArrow=classic;html=1;entryX=0.4;entryY=0;entryDx=0;entryDy=0;entryPerimeter=0;exitX=1;exitY=1;exitDx=0;exitDy=0;exitPerimeter=0;" edge="1" parent="1" source="B5Rrf7--88O0T3kkd0GH-1" target="B5Rrf7--88O0T3kkd0GH-6">
          <mxGeometry width="50" height="50" relative="1" as="geometry">
            <mxPoint x="520" y="240" as="sourcePoint" />
            <mxPoint x="570" y="190" as="targetPoint" />
          </mxGeometry>
        </mxCell>
        <mxCell id="B5Rrf7--88O0T3kkd0GH-10" value="" style="endArrow=classic;html=1;" edge="1" parent="1" source="B5Rrf7--88O0T3kkd0GH-2" target="B5Rrf7--88O0T3kkd0GH-4">
          <mxGeometry width="50" height="50" relative="1" as="geometry">
            <mxPoint x="520" y="240" as="sourcePoint" />
            <mxPoint x="570" y="190" as="targetPoint" />
          </mxGeometry>
        </mxCell>
        <mxCell id="B5Rrf7--88O0T3kkd0GH-11" value="" style="endArrow=classic;html=1;entryX=0.386;entryY=0.163;entryDx=0;entryDy=0;entryPerimeter=0;" edge="1" parent="1" source="B5Rrf7--88O0T3kkd0GH-4" target="B5Rrf7--88O0T3kkd0GH-5">
          <mxGeometry width="50" height="50" relative="1" as="geometry">
            <mxPoint x="520" y="240" as="sourcePoint" />
            <mxPoint x="570" y="190" as="targetPoint" />
          </mxGeometry>
        </mxCell>
        <mxCell id="B5Rrf7--88O0T3kkd0GH-12" value="" style="endArrow=classic;html=1;" edge="1" parent="1" source="B5Rrf7--88O0T3kkd0GH-6" target="B5Rrf7--88O0T3kkd0GH-5">
          <mxGeometry width="50" height="50" relative="1" as="geometry">
            <mxPoint x="520" y="240" as="sourcePoint" />
            <mxPoint x="570" y="190" as="targetPoint" />
          </mxGeometry>
        </mxCell>
        <mxCell id="B5Rrf7--88O0T3kkd0GH-28" value="" style="edgeStyle=orthogonalEdgeStyle;rounded=0;orthogonalLoop=1;jettySize=auto;html=1;entryX=0.61;entryY=1.013;entryDx=0;entryDy=0;entryPerimeter=0;" edge="1" parent="1" source="B5Rrf7--88O0T3kkd0GH-18" target="B5Rrf7--88O0T3kkd0GH-2">
          <mxGeometry relative="1" as="geometry">
            <mxPoint x="375" y="350" as="targetPoint" />
          </mxGeometry>
        </mxCell>
        <mxCell id="B5Rrf7--88O0T3kkd0GH-18" value="session&lt;br&gt;controller" style="ellipse;shape=umlControl;whiteSpace=wrap;html=1;" vertex="1" parent="1">
          <mxGeometry x="530" y="380" width="70" height="80" as="geometry" />
        </mxCell>
        <mxCell id="B5Rrf7--88O0T3kkd0GH-20" value="LK" style="ellipse;shape=umlBoundary;whiteSpace=wrap;html=1;" vertex="1" parent="1">
          <mxGeometry x="710" y="460" width="100" height="80" as="geometry" />
        </mxCell>
        <mxCell id="B5Rrf7--88O0T3kkd0GH-22" value="" style="endArrow=diamondThin;endFill=1;endSize=24;html=1;entryX=0.871;entryY=0.938;entryDx=0;entryDy=0;entryPerimeter=0;exitX=-0.02;exitY=0.538;exitDx=0;exitDy=0;exitPerimeter=0;" edge="1" parent="1" source="B5Rrf7--88O0T3kkd0GH-20" target="B5Rrf7--88O0T3kkd0GH-18">
          <mxGeometry width="160" relative="1" as="geometry">
            <mxPoint x="520" y="510" as="sourcePoint" />
            <mxPoint x="680" y="510" as="targetPoint" />
          </mxGeometry>
        </mxCell>
        <mxCell id="B5Rrf7--88O0T3kkd0GH-29" value="" style="endArrow=diamondThin;endFill=0;endSize=24;html=1;" edge="1" parent="1" source="B5Rrf7--88O0T3kkd0GH-32" target="B5Rrf7--88O0T3kkd0GH-20">
          <mxGeometry width="160" relative="1" as="geometry">
            <mxPoint x="840" y="650" as="sourcePoint" />
            <mxPoint x="950" y="650" as="targetPoint" />
          </mxGeometry>
        </mxCell>
        <mxCell id="B5Rrf7--88O0T3kkd0GH-30" value="" style="endArrow=diamondThin;endFill=0;endSize=24;html=1;exitX=0.92;exitY=0.175;exitDx=0;exitDy=0;exitPerimeter=0;" edge="1" parent="1" source="B5Rrf7--88O0T3kkd0GH-31" target="B5Rrf7--88O0T3kkd0GH-20">
          <mxGeometry width="160" relative="1" as="geometry">
            <mxPoint x="700" y="650" as="sourcePoint" />
            <mxPoint x="860" y="650" as="targetPoint" />
          </mxGeometry>
        </mxCell>
        <mxCell id="B5Rrf7--88O0T3kkd0GH-34" value="" style="edgeStyle=orthogonalEdgeStyle;rounded=0;orthogonalLoop=1;jettySize=auto;html=1;" edge="1" parent="1" source="B5Rrf7--88O0T3kkd0GH-31" target="B5Rrf7--88O0T3kkd0GH-33">
          <mxGeometry relative="1" as="geometry">
            <Array as="points">
              <mxPoint x="565" y="620" />
              <mxPoint x="565" y="680" />
            </Array>
          </mxGeometry>
        </mxCell>
        <mxCell id="B5Rrf7--88O0T3kkd0GH-31" value="New transport" style="shape=umlBoundary;whiteSpace=wrap;html=1;" vertex="1" parent="1">
          <mxGeometry x="590" y="580" width="100" height="80" as="geometry" />
        </mxCell>
        <mxCell id="B5Rrf7--88O0T3kkd0GH-36" value="" style="edgeStyle=orthogonalEdgeStyle;rounded=0;orthogonalLoop=1;jettySize=auto;html=1;" edge="1" parent="1" source="B5Rrf7--88O0T3kkd0GH-32" target="B5Rrf7--88O0T3kkd0GH-33">
          <mxGeometry relative="1" as="geometry">
            <mxPoint x="543" y="710" as="targetPoint" />
            <Array as="points">
              <mxPoint x="615" y="710" />
              <mxPoint x="615" y="700" />
            </Array>
          </mxGeometry>
        </mxCell>
        <mxCell id="B5Rrf7--88O0T3kkd0GH-32" value="yr transport" style="shape=umlBoundary;whiteSpace=wrap;html=1;" vertex="1" parent="1">
          <mxGeometry x="690" y="670" width="100" height="80" as="geometry" />
        </mxCell>
        <mxCell id="B5Rrf7--88O0T3kkd0GH-38" value="" style="edgeStyle=orthogonalEdgeStyle;rounded=0;orthogonalLoop=1;jettySize=auto;html=1;" edge="1" parent="1" source="B5Rrf7--88O0T3kkd0GH-33" target="B5Rrf7--88O0T3kkd0GH-37">
          <mxGeometry relative="1" as="geometry" />
        </mxCell>
        <mxCell id="B5Rrf7--88O0T3kkd0GH-33" value="vehicles&amp;nbsp;&lt;br&gt;&amp;nbsp;controller" style="ellipse;shape=umlControl;whiteSpace=wrap;html=1;" vertex="1" parent="1">
          <mxGeometry x="470" y="650" width="70" height="80" as="geometry" />
        </mxCell>
        <mxCell id="B5Rrf7--88O0T3kkd0GH-37" value="vehicles&amp;nbsp;" style="ellipse;shape=umlEntity;whiteSpace=wrap;html=1;" vertex="1" parent="1">
          <mxGeometry x="320" y="650" width="80" height="80" as="geometry" />
        </mxCell>
        <mxCell id="B5Rrf7--88O0T3kkd0GH-40" value="" style="edgeStyle=orthogonalEdgeStyle;rounded=0;orthogonalLoop=1;jettySize=auto;html=1;" edge="1" parent="1" source="B5Rrf7--88O0T3kkd0GH-39" target="B5Rrf7--88O0T3kkd0GH-37">
          <mxGeometry relative="1" as="geometry" />
        </mxCell>
        <mxCell id="B5Rrf7--88O0T3kkd0GH-39" value="Sort By" style="ellipse;shape=umlControl;whiteSpace=wrap;html=1;" vertex="1" parent="1">
          <mxGeometry x="325" y="490" width="70" height="80" as="geometry" />
        </mxCell>
        <mxCell id="B5Rrf7--88O0T3kkd0GH-42" value="" style="edgeStyle=orthogonalEdgeStyle;rounded=0;orthogonalLoop=1;jettySize=auto;html=1;" edge="1" parent="1" source="B5Rrf7--88O0T3kkd0GH-41" target="B5Rrf7--88O0T3kkd0GH-39">
          <mxGeometry relative="1" as="geometry" />
        </mxCell>
        <mxCell id="B5Rrf7--88O0T3kkd0GH-41" value="Transport page" style="shape=umlBoundary;whiteSpace=wrap;html=1;" vertex="1" parent="1">
          <mxGeometry x="140" y="490" width="100" height="80" as="geometry" />
        </mxCell>
        <mxCell id="B5Rrf7--88O0T3kkd0GH-47" value="" style="edgeStyle=orthogonalEdgeStyle;rounded=0;orthogonalLoop=1;jettySize=auto;html=1;" edge="1" parent="1" source="B5Rrf7--88O0T3kkd0GH-44" target="B5Rrf7--88O0T3kkd0GH-37">
          <mxGeometry relative="1" as="geometry" />
        </mxCell>
        <mxCell id="B5Rrf7--88O0T3kkd0GH-44" value="rent" style="shape=umlBoundary;whiteSpace=wrap;html=1;" vertex="1" parent="1">
          <mxGeometry x="140" y="650" width="100" height="80" as="geometry" />
        </mxCell>
        <mxCell id="B5Rrf7--88O0T3kkd0GH-46" value="" style="endArrow=diamondThin;endFill=0;endSize=24;html=1;" edge="1" parent="1" source="B5Rrf7--88O0T3kkd0GH-44" target="B5Rrf7--88O0T3kkd0GH-41">
          <mxGeometry width="160" relative="1" as="geometry">
            <mxPoint x="263.79952380952386" y="720.12" as="sourcePoint" />
            <mxPoint x="276.191485403589" y="590.0044032623165" as="targetPoint" />
          </mxGeometry>
        </mxCell>
      </root>
    </mxGraphModel>
  </diagram>
</mxfile>
